<svg width="13" height="13" viewBox="0 0 13 13" fill="none" xmlns="http://www.w3.org/2000/svg">
<path d="M6.77084 6.77083C7.66831 6.77083 8.39584 6.04329 8.39584 5.14583C8.39584 4.24837 7.66831 3.52083 6.77084 3.52083C5.87338 3.52083 5.14584 4.24837 5.14584 5.14583C5.14584 6.04329 5.87338 6.77083 6.77084 6.77083Z" stroke="#767676" stroke-linecap="round" stroke-linejoin="round"/>
<path d="M6.77083 0.8125C5.62156 0.8125 4.51936 1.26905 3.7067 2.0817C2.89405 2.89436 2.4375 3.99656 2.4375 5.14583C2.4375 6.17067 2.65525 6.84125 3.25 7.58333L6.77083 11.6458L10.2917 7.58333C10.8864 6.84125 11.1042 6.17067 11.1042 5.14583C11.1042 3.99656 10.6476 2.89436 9.83496 2.0817C9.02231 1.26905 7.92011 0.8125 6.77083 0.8125V0.8125Z" stroke="#767676" stroke-linecap="round" stroke-linejoin="round"/>
</svg>
