<svg width="78" height="78" viewBox="0 0 78 78" fill="none" xmlns="http://www.w3.org/2000/svg">
<path d="M42.9 11.7C42.9 10.6657 42.4891 9.67367 41.7577 8.94228C41.0263 8.21089 40.0343 7.8 39 7.8C37.9656 7.8 36.9737 8.21089 36.2423 8.94228C35.5109 9.67367 35.1 10.6657 35.1 11.7V15.6C35.1 16.6343 35.5109 17.6263 36.2423 18.3577C36.9737 19.0891 37.9656 19.5 39 19.5C40.0343 19.5 41.0263 19.0891 41.7577 18.3577C42.4891 17.6263 42.9 16.6343 42.9 15.6V11.7ZM61.0623 22.4523C61.7727 21.7168 62.1658 20.7316 62.1569 19.709C62.148 18.6865 61.7379 17.7083 61.0148 16.9852C60.2917 16.2621 59.3135 15.852 58.291 15.8431C57.2684 15.8342 56.2832 16.2273 55.5477 16.9377L52.7904 19.695C52.08 20.4305 51.6869 21.4157 51.6958 22.4383C51.7046 23.4608 52.1148 24.439 52.8379 25.1621C53.561 25.8852 54.5392 26.2953 55.5617 26.3042C56.5843 26.3131 57.5694 25.92 58.305 25.2096L61.0623 22.4523ZM70.2 39C70.2 40.0343 69.7891 41.0263 69.0577 41.7577C68.3263 42.4891 67.3343 42.9 66.3 42.9H62.4C61.3656 42.9 60.3737 42.4891 59.6423 41.7577C58.9109 41.0263 58.5 40.0343 58.5 39C58.5 37.9657 58.9109 36.9737 59.6423 36.2423C60.3737 35.5109 61.3656 35.1 62.4 35.1H66.3C67.3343 35.1 68.3263 35.5109 69.0577 36.2423C69.7891 36.9737 70.2 37.9657 70.2 39ZM19.695 25.2096C20.0548 25.5821 20.4851 25.8792 20.9609 26.0836C21.4367 26.288 21.9485 26.3956 22.4663 26.4001C22.9842 26.4046 23.4977 26.3059 23.977 26.1098C24.4563 25.9137 24.8917 25.6241 25.2579 25.2579C25.6241 24.8918 25.9137 24.4563 26.1098 23.977C26.3059 23.4977 26.4046 22.9842 26.4001 22.4663C26.3956 21.9485 26.288 21.4367 26.0836 20.9609C25.8792 20.4851 25.5821 20.0548 25.2096 19.695L22.4523 16.9377C21.7167 16.2273 20.7316 15.8342 19.709 15.8431C18.6865 15.852 17.7083 16.2621 16.9852 16.9852C16.2621 17.7083 15.8519 18.6865 15.8431 19.709C15.8342 20.7316 16.2273 21.7168 16.9377 22.4523L19.695 25.2096ZM19.5 39C19.5 40.0343 19.0891 41.0263 18.3577 41.7577C17.6263 42.4891 16.6343 42.9 15.6 42.9H11.7C10.6656 42.9 9.67366 42.4891 8.94227 41.7577C8.21088 41.0263 7.79999 40.0343 7.79999 39C7.79999 37.9657 8.21088 36.9737 8.94227 36.2423C9.67366 35.5109 10.6656 35.1 11.7 35.1H15.6C16.6343 35.1 17.6263 35.5109 18.3577 36.2423C19.0891 36.9737 19.5 37.9657 19.5 39ZM31.2 62.4V58.5H46.8V62.4C46.8 64.4687 45.9782 66.4526 44.5154 67.9154C43.0526 69.3782 41.0687 70.2 39 70.2C36.9313 70.2 34.9473 69.3782 33.4846 67.9154C32.0218 66.4526 31.2 64.4687 31.2 62.4ZM46.8 54.6C46.8585 53.274 47.6112 52.0806 48.6603 51.2499C51.2057 49.2424 53.0626 46.4918 53.9726 43.3803C54.8827 40.2689 54.8009 36.9512 53.7385 33.8884C52.676 30.8256 50.6858 28.1699 48.0445 26.2903C45.4031 24.4108 42.2418 23.4009 39 23.4009C35.7582 23.4009 32.5969 24.4108 29.9555 26.2903C27.3142 28.1699 25.3239 30.8256 24.2615 33.8884C23.1991 36.9512 23.1172 40.2689 24.0273 43.3803C24.9374 46.4918 26.7942 49.2424 29.3397 51.2499C30.3927 52.0806 31.1415 53.274 31.1961 54.6H46.8039H46.8Z" fill="white"/>
</svg>
