<svg width="66" height="66" viewBox="0 0 66 66" fill="none" xmlns="http://www.w3.org/2000/svg">
<path d="M36.6094 6.1875H17.5312C16.9842 6.1875 16.4596 6.4048 16.0728 6.79159C15.686 7.17839 15.4688 7.70299 15.4688 8.25V42.2812C15.4756 47.339 17.4878 52.1876 21.0641 55.764C24.6405 59.3404 29.4891 61.3526 34.5469 61.3594C35.0939 61.3594 35.6185 61.1421 36.0053 60.7553C36.3921 60.3685 36.6094 59.8439 36.6094 59.2969V44.3438C41.6692 44.3438 46.5218 42.3337 50.0996 38.7559C53.6775 35.1781 55.6875 30.3255 55.6875 25.2656C55.6875 20.2058 53.6775 15.3532 50.0996 11.7754C46.5218 8.19751 41.6692 6.1875 36.6094 6.1875ZM32.4844 57.1055C29.2637 56.6496 26.279 55.1577 23.9813 52.8554C21.6836 50.553 20.1978 47.5653 19.7484 44.3438H32.4844V57.1055ZM32.4844 33.5414L20.857 10.3125H32.4844V33.5414ZM36.6094 40.2188V10.3125C40.5752 10.3125 44.3786 11.8879 47.1828 14.6922C49.9871 17.4964 51.5625 21.2998 51.5625 25.2656C51.5625 29.2314 49.9871 33.0348 47.1828 35.8391C44.3786 38.6433 40.5752 40.2188 36.6094 40.2188Z" fill="white"/>
</svg>
