<svg width="156" height="19" viewBox="0 0 156 19" fill="none" xmlns="http://www.w3.org/2000/svg">
<path d="M-1.10056e-05 18.0629V0.54736H5.91833C7.28673 0.54736 8.40996 0.781129 9.28802 1.24867C10.1661 1.7105 10.8161 2.34624 11.238 3.15588C11.6599 3.96552 11.8709 4.88634 11.8709 5.91834C11.8709 6.95034 11.6599 7.86546 11.238 8.6637C10.8161 9.46193 10.1689 10.0891 9.29657 10.5453C8.42422 10.9957 7.30954 11.2209 5.95254 11.2209H1.16313V9.30514H5.88412C6.81919 9.30514 7.57182 9.1683 8.14198 8.89461C8.71785 8.62093 9.13408 8.23322 9.39065 7.73147C9.65293 7.22402 9.78407 6.61965 9.78407 5.91834C9.78407 5.21703 9.65293 4.6041 9.39065 4.07955C9.12837 3.555 8.7093 3.15018 8.13343 2.86509C7.55756 2.57431 6.79639 2.42891 5.84991 2.42891H2.12101V18.0629H-1.10056e-05ZM8.24461 10.1946L12.5551 18.0629H10.092L5.84991 10.1946H8.24461ZM20.4982 18.3366C19.2325 18.3366 18.1406 18.0572 17.2226 17.4984C16.3103 16.934 15.6062 16.1471 15.1101 15.138C14.6198 14.1231 14.3746 12.9428 14.3746 11.5972C14.3746 10.2516 14.6198 9.06567 15.1101 8.03936C15.6062 7.00736 16.2961 6.20342 17.1799 5.62755C18.0693 5.04598 19.107 4.7552 20.293 4.7552C20.9772 4.7552 21.6528 4.86923 22.3199 5.0973C22.987 5.32537 23.5942 5.69597 24.1416 6.20913C24.689 6.71657 25.1251 7.38937 25.4501 8.22752C25.7751 9.06567 25.9376 10.0977 25.9376 11.3235V12.1788H15.8115V10.4341H23.885C23.885 9.69285 23.7368 9.03146 23.4403 8.44988C23.1495 7.86831 22.7333 7.40933 22.1916 7.07293C21.6557 6.73653 21.0228 6.56833 20.293 6.56833C19.489 6.56833 18.7934 6.76789 18.2062 7.16701C17.6246 7.56042 17.177 8.07357 16.8634 8.70646C16.5498 9.33935 16.393 10.0178 16.393 10.742V11.9051C16.393 12.8972 16.5641 13.7382 16.9062 14.4281C17.254 15.1123 17.7358 15.634 18.3515 15.9932C18.9673 16.3467 19.6829 16.5235 20.4982 16.5235C21.0285 16.5235 21.5074 16.4493 21.9351 16.3011C22.3684 16.1471 22.7418 15.9191 23.0554 15.6169C23.369 15.309 23.6113 14.927 23.7824 14.4709L25.7324 15.0182C25.5271 15.6796 25.1822 16.2612 24.6975 16.7629C24.2129 17.259 23.6142 17.6467 22.9015 17.9261C22.1888 18.1998 21.3877 18.3366 20.4982 18.3366ZM39.3501 4.92625L34.4923 18.0629H32.4397L27.5818 4.92625H29.7713L33.3976 15.3945H33.5344L37.1607 4.92625H39.3501ZM42.0142 18.0629V4.92625H44.0326V18.0629H42.0142ZM43.0405 2.73681C42.6471 2.73681 42.3079 2.60282 42.0228 2.33484C41.7434 2.06686 41.6037 1.74471 41.6037 1.3684C41.6037 0.992092 41.7434 0.669947 42.0228 0.401968C42.3079 0.133989 42.6471 0 43.0405 0C43.4339 0 43.7703 0.133989 44.0497 0.401968C44.3348 0.669947 44.4773 0.992092 44.4773 1.3684C44.4773 1.74471 44.3348 2.06686 44.0497 2.33484C43.7703 2.60282 43.4339 2.73681 43.0405 2.73681ZM53.2373 18.3366C51.9715 18.3366 50.8796 18.0572 49.9616 17.4984C49.0494 16.934 48.3452 16.1471 47.8492 15.138C47.3588 14.1231 47.1137 12.9428 47.1137 11.5972C47.1137 10.2516 47.3588 9.06567 47.8492 8.03936C48.3452 7.00736 49.0351 6.20342 49.9189 5.62755C50.8083 5.04598 51.846 4.7552 53.032 4.7552C53.7162 4.7552 54.3918 4.86923 55.0589 5.0973C55.726 5.32537 56.3333 5.69597 56.8806 6.20913C57.428 6.71657 57.8642 7.38937 58.1892 8.22752C58.5142 9.06567 58.6767 10.0977 58.6767 11.3235V12.1788H48.5505V10.4341H56.6241C56.6241 9.69285 56.4758 9.03146 56.1793 8.44988C55.8885 7.86831 55.4723 7.40933 54.9307 7.07293C54.3947 6.73653 53.7618 6.56833 53.032 6.56833C52.2281 6.56833 51.5325 6.76789 50.9452 7.16701C50.3636 7.56042 49.916 8.07357 49.6024 8.70646C49.2888 9.33935 49.132 10.0178 49.132 10.742V11.9051C49.132 12.8972 49.3031 13.7382 49.6452 14.4281C49.993 15.1123 50.4748 15.634 51.0906 15.9932C51.7064 16.3467 52.4219 16.5235 53.2373 16.5235C53.7675 16.5235 54.2465 16.4493 54.6741 16.3011C55.1074 16.1471 55.4809 15.9191 55.7945 15.6169C56.1081 15.309 56.3504 14.927 56.5214 14.4709L58.4714 15.0182C58.2661 15.6796 57.9212 16.2612 57.4365 16.7629C56.9519 17.259 56.3532 17.6467 55.6405 17.9261C54.9278 18.1998 54.1267 18.3366 53.2373 18.3366ZM64.7233 18.0629L60.7207 4.92625H62.8417L65.6812 14.984H65.818L68.6232 4.92625H70.7785L73.5495 14.9498H73.6863L76.5258 4.92625H78.6468L74.6442 18.0629H72.66L69.7864 7.97094H69.5811L66.7075 18.0629H64.7233Z" fill="#484848"/>
<path d="M86.2756 18.3024C85.1239 18.3024 84.1318 18.0914 83.2993 17.6695C82.4669 17.2476 81.8255 16.6689 81.375 15.9333C80.9246 15.1978 80.6994 14.3568 80.6994 13.4103C80.6994 12.6805 80.8533 12.0334 81.1612 11.4689C81.4748 10.8988 81.9053 10.3713 82.4526 9.88671C83.0057 9.39636 83.6414 8.90602 84.3599 8.41567L86.8914 6.53412C87.3874 6.20913 87.7837 5.86132 88.0802 5.49071C88.3824 5.12011 88.5335 4.63546 88.5335 4.03679C88.5335 3.59206 88.3368 3.16158 87.9434 2.74536C87.5556 2.32913 87.0453 2.12102 86.4125 2.12102C85.9677 2.12102 85.5743 2.23506 85.2322 2.46312C84.8958 2.68549 84.6307 2.97057 84.4368 3.31838C84.2487 3.66048 84.1546 4.01398 84.1546 4.37889C84.1546 4.78941 84.2658 5.20563 84.4881 5.62755C84.7162 6.04378 85.0041 6.4714 85.352 6.91043C85.7055 7.34376 86.0704 7.78849 86.4467 8.24462L94.486 18.0629H92.0571L85.4204 10.0578C84.8046 9.31654 84.2458 8.64374 83.7441 8.03936C83.2423 7.43499 82.8432 6.83916 82.5467 6.25189C82.2502 5.66462 82.102 5.02888 82.102 4.34468C82.102 3.55785 82.2759 2.86794 82.6237 2.27497C82.9772 1.67629 83.4704 1.21161 84.1033 0.880909C84.7419 0.54451 85.4888 0.376311 86.344 0.376311C87.2221 0.376311 87.9776 0.547361 88.6105 0.889461C89.2433 1.22586 89.7308 1.67344 90.0729 2.23221C90.415 2.78527 90.5861 3.3868 90.5861 4.03679C90.5861 4.87493 90.378 5.6019 89.9618 6.21768C89.5455 6.83346 88.9782 7.40648 88.2598 7.93673L84.7704 10.5367C83.9835 11.1183 83.4504 11.6827 83.1711 12.2301C82.8917 12.7775 82.752 13.1709 82.752 13.4103C82.752 13.9577 82.8945 14.468 83.1796 14.9412C83.4647 15.4145 83.8667 15.7965 84.3855 16.0873C84.9044 16.3781 85.5116 16.5235 86.2072 16.5235C86.8686 16.5235 87.5129 16.3838 88.1401 16.1044C88.7673 15.8193 89.3346 15.4088 89.842 14.8728C90.3552 14.3369 90.76 13.6926 91.0565 12.94C91.3587 12.1873 91.5098 11.3406 91.5098 10.3999H93.4597C93.4597 11.563 93.3257 12.5123 93.0578 13.2478C92.7898 13.9834 92.4876 14.5592 92.1512 14.9755C91.8148 15.3917 91.544 15.7024 91.3387 15.9077C91.2703 15.9932 91.2076 16.0787 91.1506 16.1643C91.0935 16.2498 91.0308 16.3353 90.9624 16.4208C90.3979 17.0537 89.6852 17.527 88.8243 17.8405C87.9633 18.1484 87.1138 18.3024 86.2756 18.3024Z" fill="url(#paint0_linear_4_11)"/>
<path d="M96.3954 18.0629V0.54736H103.306C104.629 0.54736 105.758 0.78398 106.693 1.25722C107.633 1.72476 108.349 2.389 108.839 3.24996C109.335 4.10521 109.583 5.11155 109.583 6.26899C109.583 7.43214 109.332 8.43278 108.831 9.27093C108.329 10.1034 107.602 10.742 106.65 11.1867C105.703 11.6314 104.557 11.8538 103.212 11.8538H98.5848V8.87751H102.613C103.32 8.87751 103.907 8.78058 104.375 8.58673C104.842 8.39287 105.19 8.10208 105.418 7.71437C105.652 7.32665 105.769 6.84486 105.769 6.26899C105.769 5.68742 105.652 5.19708 105.418 4.79796C105.19 4.39884 104.84 4.09665 104.366 3.89139C103.899 3.68043 103.309 3.57495 102.596 3.57495H100.099V18.0629H96.3954ZM105.854 10.092L110.208 18.0629H106.12L101.86 10.092H105.854ZM115.219 18.0629H111.251L117.298 0.54736H122.07L128.108 18.0629H124.14L119.752 4.54994H119.615L115.219 18.0629ZM114.971 11.1781H124.345V14.0689H114.971V11.1781ZM127.409 3.60061V0.54736H141.794V3.60061H136.432V18.0629H132.771V3.60061H127.409ZM144.163 18.0629V0.54736H155.966V3.60061H147.867V7.77424H155.359V10.8275H147.867V15.0097H156V18.0629H144.163Z" fill="black"/>
<defs>
<linearGradient id="paint0_linear_4_11" x1="77.6568" y1="-5.01748" x2="77.6568" y2="24.0839" gradientUnits="userSpaceOnUse">
<stop stop-color="#D100F3"/>
<stop offset="1" stop-color="#002BC5"/>
</linearGradient>
</defs>
</svg>
